name D:\school\WTK\thesis\model\3dpredictsim\Results\batch_windlass\Pog_s1_tmt_aCst_d05_k500_WL30_ig24_pas.mot
datacolumns 128
datarows 4
range 1.09385981 1.12667560
endheader
time	pelvis_tilt	pelvis_list	pelvis_rotation	pelvis_tx	pelvis_ty	pelvis_tz	hip_flexion_l	hip_adduction_l	hip_rotation_l	hip_flexion_r	hip_adduction_r	hip_rotation_r	knee_angle_l	knee_angle_r	ankle_angle_l	ankle_angle_r	subtalar_angle_l	subtalar_angle_r	tmt_angle_l	tmt_angle_r	mtp_angle_l	mtp_angle_r	lumbar_extension	lumbar_bending	lumbar_rotation	arm_flex_l	arm_add_l	arm_rot_l	arm_flex_r	arm_add_r	arm_rot_r	elbow_flex_l	elbow_flex_r	pro_sup_l	pro_sup_r	glut_med1_l/activation	glut_med2_l/activation	glut_med3_l/activation	glut_min1_l/activation	glut_min2_l/activation	glut_min3_l/activation	semimem_l/activation	semiten_l/activation	bifemlh_l/activation	bifemsh_l/activation	sar_l/activation	add_long_l/activation	add_brev_l/activation	add_mag1_l/activation	add_mag2_l/activation	add_mag3_l/activation	tfl_l/activation	pect_l/activation	grac_l/activation	glut_max1_l/activation	glut_max2_l/activation	glut_max3_l/activation	iliacus_l/activation	psoas_l/activation	quad_fem_l/activation	gem_l/activation	peri_l/activation	rect_fem_l/activation	vas_med_l/activation	vas_int_l/activation	vas_lat_l/activation	med_gas_l/activation	lat_gas_l/activation	soleus_l/activation	tib_post_l/activation	flex_dig_l/activation	flex_hal_l/activation	tib_ant_l/activation	per_brev_l/activation	per_long_l/activation	per_tert_l/activation	ext_dig_l/activation	ext_hal_l/activation	ercspn_l/activation	intobl_l/activation	extobl_l/activation	glut_med1_r/activation	glut_med2_r/activation	glut_med3_r/activation	glut_min1_r/activation	glut_min2_r/activation	glut_min3_r/activation	semimem_r/activation	semiten_r/activation	bifemlh_r/activation	bifemsh_r/activation	sar_r/activation	add_long_r/activation	add_brev_r/activation	add_mag1_r/activation	add_mag2_r/activation	add_mag3_r/activation	tfl_r/activation	pect_r/activation	grac_r/activation	glut_max1_r/activation	glut_max2_r/activation	glut_max3_r/activation	iliacus_r/activation	psoas_r/activation	quad_fem_r/activation	gem_r/activation	peri_r/activation	rect_fem_r/activation	vas_med_r/activation	vas_int_r/activation	vas_lat_r/activation	med_gas_r/activation	lat_gas_r/activation	soleus_r/activation	tib_post_r/activation	flex_dig_r/activation	flex_hal_r/activation	tib_ant_r/activation	per_brev_r/activation	per_long_r/activation	per_tert_r/activation	ext_dig_r/activation	ext_hal_r/activation	ercspn_r/activation	intobl_r/activation	extobl_r/activation	
          1.09385981	         -2.91925019	         -1.57743096	          6.25066884	          1.36732476	          0.85691589	         -0.00233988	        -18.06121862	         -1.65432224	          7.52206961	         31.70290224	          2.04420692	         -4.03338503	        -10.54905848	        -18.65087954	         -0.95786174	          0.44764729	         12.73701792	          0.28728784	         -8.14616251	          0.23621274	         29.91032748	         -0.40408593	         -0.91525257	         -0.12963686	         -1.98934916	          4.77411891	        -13.50160824	         15.84607502	        -10.23577423	        -13.61001699	          7.05924349	         36.91117013	         18.03033317	         86.51662706	         86.51662706	          0.24444354	          0.08194954	          0.05000000	          0.27199976	          0.17428343	          0.08095674	          0.05000033	          0.05000004	          0.05000002	          0.06422508	          0.07372335	          0.17734990	          0.06606482	          0.05000030	          0.05000029	          0.05000010	          0.24723725	          0.10318533	          0.05000016	          0.05000036	          0.05000023	          0.05000017	          0.30775588	          0.53482876	          0.05000002	          0.05000007	          0.05000001	          0.22571112	          0.13310004	          0.10701071	          0.09564604	          0.25767904	          0.33140433	          0.20993374	          0.18733627	          0.18087780	          0.24248471	          0.05000001	          0.11724734	          0.17944675	          0.05000007	          0.05000005	          0.05000006	          0.05000000	          0.05000000	          0.05000003	          0.05911516	          0.05000019	          0.06873146	          0.05000016	          0.05000020	          0.05000040	          0.05911552	          0.05911552	          0.15578575	          0.05000018	          0.05000028	          0.09770080	          0.16316767	          0.13549397	          0.17649152	          0.13673144	          0.05000014	          0.05099836	          0.05911596	          0.05063329	          0.14578095	          0.14193301	          0.05911555	          0.06029864	          0.24172490	          0.05000060	          0.05000073	          0.05000004	          0.14156117	          0.14529505	          0.11973407	          0.05911549	          0.05911550	          0.05911549	          0.05000000	          0.05000052	          0.05000589	          0.51198697	          0.27605263	          0.16146728	          0.38090700	          0.59282669	          0.19866835	          0.05000002	          0.10186486	          0.10751621	
          1.10479841	         -2.90556754	         -1.66277830	          6.48059108	          1.38442735	          0.85582565	         -0.00213648	        -17.79203951	         -1.94843492	          7.29653319	         31.02969823	          2.45320630	         -3.78960105	        -12.62381493	        -18.54289826	         -2.06839641	          0.13939543	         13.67406055	         -0.33871715	         -8.84770232	          0.14994268	         30.67464298	         -0.10797883	         -0.68091814	          0.12322602	         -2.06106335	          4.44651863	        -13.54794931	         16.17042324	        -11.34220703	        -13.60570534	          6.87307981	         37.93593152	         17.96390739	         86.51662706	         86.51662706	          0.20675082	          0.06931309	          0.05000007	          0.23005794	          0.14740927	          0.06847339	          0.05151380	          0.05000004	          0.05000008	          0.05432170	          0.06235539	          0.23740803	          0.22998409	          0.21034623	          0.05058340	          0.13657024	          0.20911379	          0.08727472	          0.05000017	          0.05000044	          0.05000027	          0.05000032	          0.26030051	          0.46548544	          0.05000005	          0.05000191	          0.05911552	          0.19090690	          0.11257653	          0.13657062	          0.13525149	          0.21794542	          0.28030241	          0.17756235	          0.15844938	          0.15298682	          0.20509405	          0.11414965	          0.09916809	          0.15177647	          0.05000011	          0.13431888	          0.05000040	          0.05558203	          0.06989283	          0.05829496	          0.05000001	          0.05000007	          0.09045680	          0.05000003	          0.05000005	          0.05000007	          0.05000003	          0.05000007	          0.13176390	          0.05000003	          0.05000017	          0.08263557	          0.13800759	          0.36338302	          0.27877888	          0.13897439	          0.05000006	          0.05000035	          0.05000053	          0.05911549	          0.15592914	          0.15646501	          0.05000006	          0.05100073	          0.46352720	          0.06684910	          0.06121724	          0.06989281	          0.24923569	          0.24216312	          0.20762089	          0.05000000	          0.05000000	          0.05000000	          0.05000001	          0.05000089	          0.05000005	          0.61554697	          0.23348585	          0.13656934	          0.55439104	          0.61189648	          0.24509311	          0.05000000	          0.08615749	          0.09093741	
          1.11573700	         -2.88760284	         -1.75952856	          6.68211572	          1.40168560	          0.85452411	         -0.00195619	        -17.41838582	         -2.23188837	          7.06502555	         30.21220029	          2.81983869	         -3.46085450	        -14.90947625	        -18.97568525	         -3.17639897	         -0.06061203	         14.53483761	         -1.02360513	         -9.27422800	         -0.15283458	         30.64156907	          0.18311118	         -0.43765915	          0.39577399	         -2.11861109	          4.05655005	        -13.59971049	         16.42129124	        -12.41772050	        -13.61614635	          6.79633388	         38.96260671	         17.85219664	         86.51662706	         86.51662706	          0.22189902	          0.05862516	          0.05000004	          0.19458347	          0.12467906	          0.05791495	          0.07447272	          0.05302634	          0.05911545	          0.05000002	          0.05274035	          0.20080702	          0.31290839	          0.17791131	          0.05943189	          0.11551148	          0.22462017	          0.07381745	          0.05911551	          0.05000396	          0.05768999	          0.05911552	          0.22016268	          0.43285375	          0.05911547	          0.05000034	          0.05000004	          0.16146942	          0.09521745	          0.11551169	          0.11439597	          0.18433864	          0.23708031	          0.15018257	          0.13401680	          0.12939658	          0.17346896	          0.19413917	          0.14784889	          0.16180461	          0.16529477	          0.22531243	          0.10190331	          0.08442926	          0.05911549	          0.05000002	          0.31109562	          0.32945486	          0.43875259	          0.19544020	          0.05000017	          0.42169006	          0.08630297	          0.05000024	          0.12868453	          0.05000002	          0.05000009	          0.06989360	          0.22207241	          0.30735008	          0.23579187	          0.17617523	          0.05000004	          0.06989207	          0.11551869	          0.05000002	          0.20394334	          0.17328939	          0.05911548	          0.05000029	          0.39205219	          0.05654112	          0.26588748	          0.05911548	          0.24266049	          0.25206643	          0.21152795	          0.05911549	          0.05911549	          0.05911549	          0.05000001	          0.05000005	          0.05000049	          0.56897279	          0.19748278	          0.11551061	          0.46890502	          0.57899290	          0.20730024	          0.05240157	          0.07349742	          0.07691504	
          1.12667560	         -2.86849926	         -1.86247360	          6.85141143	          1.41883520	          0.85313719	         -0.00176887	        -16.89753371	         -2.49817598	          6.83974722	         29.27095909	          3.16995144	         -3.11227713	        -17.45135873	        -19.41257581	         -4.22841499	          0.00421058	         15.29235396	         -1.74369317	         -9.19381480	         -0.45630041	         29.34185835	          0.49569416	         -0.20778810	          0.67725343	         -2.16361684	          3.65461724	        -13.65252691	         16.61812979	        -13.39928442	        -13.63427981	          6.84555326	         39.94193446	         17.65541030	         86.51662706	         86.51662706	          0.18768264	          0.05000003	          0.05000001	          0.19215379	          0.10545382	          0.05000009	          0.10416623	          0.05000005	          0.05000006	          0.05000006	          0.05911530	          0.18928385	          0.26465853	          0.15047775	          0.05026766	          0.09769987	          0.27548096	          0.06243501	          0.05000013	          0.05000028	          0.05000016	          0.05000014	          0.18621405	          0.40770612	          0.05000001	          0.05000009	          0.05000005	          0.13657115	          0.08053512	          0.09770002	          0.09675634	          0.15591397	          0.20052298	          0.12702470	          0.12254173	          0.10944395	          0.14672061	          0.17085718	          0.12505091	          0.13685467	          0.13980670	          0.21347518	          0.08619005	          0.12402808	          0.05000000	          0.05000000	          0.40232015	          0.49774587	          0.58465263	          0.27510457	          0.42279761	          0.42222192	          0.07299523	          0.10299196	          0.10884162	          0.05911597	          0.05000014	          0.05911615	          0.18782927	          0.25995730	          0.19943327	          0.16942611	          0.05000007	          0.05911490	          0.09770598	          0.30459400	          0.25775334	          0.17483918	          0.05000001	          0.05000000	          0.33159850	          0.06989265	          0.22488828	          0.05000000	          0.32344616	          0.33861892	          0.28283827	          0.05000000	          0.05000000	          0.05000000	          0.10269906	          0.05017030	          0.05000007	          0.70835761	          0.16703131	          0.09769909	          0.44439615	          0.59495860	          0.41695747	          0.06885352	          0.06989281	          0.06505488	
